<svg xmlns="http://www.w3.org/2000/svg"><symbol id="instagram" viewBox="0 0 256 256"><circle cx="128.2" cy="127.5" r="109.7" fill="#177ccc"/><path fill="#efebe3" d="M128.3 77.9c16.9 0 18.9 0 25.6.3s9.6 1.3 11.8 2.2a21.2 21.2 0 0 1 12 12c.9 2.3 1.9 5.6 2.2 11.8s.4 8.7.4 25.6-.1 19-.4 25.7-1.3 9.5-2.2 11.7a18.8 18.8 0 0 1-4.7 7.3 20.2 20.2 0 0 1-7.3 4.8 35.2 35.2 0 0 1-11.8 2.1c-6.7.4-8.7.4-25.6.4s-18.9 0-25.6-.4a35.8 35.8 0 0 1-11.8-2.1 21.1 21.1 0 0 1-7.3-4.8 18.8 18.8 0 0 1-4.7-7.3c-.9-2.2-1.9-5.6-2.2-11.7s-.4-8.7-.4-25.7.1-18.9.4-25.6 1.3-9.5 2.2-11.8a19.1 19.1 0 0 1 4.7-7.2 19.8 19.8 0 0 1 7.3-4.8c2.3-.9 5.6-1.9 11.8-2.2s8.7-.3 25.6-.3m0-11.5c-17.2 0-19.4.1-26.1.4a45 45 0 0 0-15.4 3 32.2 32.2 0 0 0-18.6 18.5 47.8 47.8 0 0 0-2.9 15.4c-.3 6.8-.4 8.9-.4 26.1s.1 19.4.4 26.2a49 49 0 0 0 2.9 15.4 32.8 32.8 0 0 0 7.3 11.2 31.7 31.7 0 0 0 11.3 7.3 45 45 0 0 0 15.4 3c6.7.3 8.9.3 26.1.3s19.4 0 26.2-.3a44.9 44.9 0 0 0 15.3-3 31.7 31.7 0 0 0 11.3-7.3 31.4 31.4 0 0 0 7.3-11.2 46.3 46.3 0 0 0 2.9-15.4c.3-6.8.4-8.9.4-26.2s-.1-19.3-.4-26.1-1.3-11.4-2.9-15.4a30.5 30.5 0 0 0-7.3-11.2 31.7 31.7 0 0 0-11.3-7.3 44.9 44.9 0 0 0-15.3-3c-6.8-.3-9-.4-26.2-.4"/><path fill="#efebe3" d="M128.3 97.3a32.6 32.6 0 1 0 32.6 32.5 32.5 32.5 0 0 0-32.6-32.5m0 53.7a21.2 21.2 0 1 1 21.1-21.2 21.1 21.1 0 0 1-21.1 21.2m41.5-55a7.6 7.6 0 0 1-7.6 7.6 7.6 7.6 0 1 1 0-15.2 7.6 7.6 0 0 1 7.6 7.6"/></symbol><symbol id="linkedin" viewBox="0 0 256 256"><circle cx="128.2" cy="128.1" r="109.7" fill="#177ccc" transform="rotate(-80.7 128.1 128.082)"/><path fill="#efebe3" d="M76.3 105.7h23.9v77.32H76.3zm11.8-10.1A14.3 14.3 0 1 0 74 81.3a14.3 14.3 0 0 0 14.1 14.3zm50.3 46.8c0-10.8 5.1-17.3 14.6-17.3s13.1 6.2 13.1 17.3V183h23.8v-48.9c0-20.8-11.8-30.8-28.2-30.8a27 27 0 0 0-23.3 12.8v-10.4h-22.9V183h22.9z"/></symbol><symbol id="vimeo" viewBox="0 0 256 256"><circle cx="128.2" cy="127.9" r="109.7" fill="#177ccc"/><path fill="#efebe3" d="M170.4 77c-18.2-.6-30.5 9.6-37 30.8a23.8 23.8 0 0 1 9.7-2.2c6.7 0 9.7 3.8 8.9 11.2-.4 4.6-3.4 11.2-8.9 19.9s-9.6 13-12.3 13-6.8-6.7-9.7-20.1c-1-3.9-2.8-13.9-5.3-30.1s-8.7-21.9-18.9-20.9c-4.3.4-10.8 4.3-19.4 11.8l-19.2 17.1 6.2 7.9c5.9-4.1 9.3-6.2 10.3-6.2 4.5 0 8.7 7.1 12.6 21.2s7.1 25.9 10.6 38.9c5.3 14.1 11.8 21.1 19.4 21.1 12.4 0 27.4-11.6 45.3-34.7s26.1-39.7 26.7-52.5c.8-17.1-5.6-25.8-19-26.2z"/></symbol><symbol id="behance" viewBox="0 0 256 256"><circle cx="128.7" cy="127.7" r="110.1" fill="#177ccc" transform="rotate(-45 128.693 127.694)"/><path fill="#efebe3" d="M117 164.5a22 22 0 0 0 9.2-4.1 20.7 20.7 0 0 0 5.7-6.4 23.6 23.6 0 0 0 3.6-12.9 21.9 21.9 0 0 0-3.1-12 18.5 18.5 0 0 0-9.4-7.1 19.8 19.8 0 0 0 6.2-4.7c2.5-3 3.7-7 3.7-11.9a20.3 20.3 0 0 0-3.7-12.4c-4.1-5.7-11.2-8.6-21.1-8.7H68.8v81.3h36.7a59.9 59.9 0 0 0 11.5-1.1zM85.1 98.4h17.6a29.9 29.9 0 0 1 9.7 1.3c2.9 1.2 4.3 3.7 4.3 7.5s-1.1 5.8-3.3 7.1-5 2-8.6 2H85.1zm0 53.1v-21.7h20a19.3 19.3 0 0 1 8.1 1.4c3.4 1.6 5.2 4.5 5.2 8.7s-1.8 8.4-5.4 10.2a19.8 19.8 0 0 1-8.2 1.4zm64.2 8.7a32.4 32.4 0 0 0 21.2 7.4c9.7 0 17.2-2.9 22.6-8.7 3.5-3.7 5.4-7.3 5.8-10.9h-16a11.7 11.7 0 0 1-3.3 4.1c-2.2 1.9-5.1 2.8-8.7 2.8a14.7 14.7 0 0 1-8.6-2.3q-6-3.6-6.3-12.6h43.8a76.1 76.1 0 0 0-.6-12 28.8 28.8 0 0 0-4.8-12.4 24.4 24.4 0 0 0-10.3-8.9 34.3 34.3 0 0 0-14.2-2.8c-8.8 0-16 2.8-21.5 8.3s-8.3 13.6-8.3 24 3.1 19.1 9.2 24zm11.2-39.9c2.3-2.3 5.4-3.5 9.4-3.5a13.6 13.6 0 0 1 9.3 3.3c2.6 2.1 3.9 5.3 4.2 9.5h-27.1a16.7 16.7 0 0 1 4.2-9.3zM151.2 89h35.3v8.21h-35.3z"/></symbol><symbol id="instagram" viewBox="0 0 256 256"><circle cx="128.2" cy="127.5" r="109.7" fill="#177ccc"/><path fill="#efebe3" d="M128.3 77.9c16.9 0 18.9 0 25.6.3s9.6 1.3 11.8 2.2a21.2 21.2 0 0 1 12 12c.9 2.3 1.9 5.6 2.2 11.8s.4 8.7.4 25.6-.1 19-.4 25.7-1.3 9.5-2.2 11.7a18.8 18.8 0 0 1-4.7 7.3 20.2 20.2 0 0 1-7.3 4.8 35.2 35.2 0 0 1-11.8 2.1c-6.7.4-8.7.4-25.6.4s-18.9 0-25.6-.4a35.8 35.8 0 0 1-11.8-2.1 21.1 21.1 0 0 1-7.3-4.8 18.8 18.8 0 0 1-4.7-7.3c-.9-2.2-1.9-5.6-2.2-11.7s-.4-8.7-.4-25.7.1-18.9.4-25.6 1.3-9.5 2.2-11.8a19.1 19.1 0 0 1 4.7-7.2 19.8 19.8 0 0 1 7.3-4.8c2.3-.9 5.6-1.9 11.8-2.2s8.7-.3 25.6-.3m0-11.5c-17.2 0-19.4.1-26.1.4a45 45 0 0 0-15.4 3 32.2 32.2 0 0 0-18.6 18.5 47.8 47.8 0 0 0-2.9 15.4c-.3 6.8-.4 8.9-.4 26.1s.1 19.4.4 26.2a49 49 0 0 0 2.9 15.4 32.8 32.8 0 0 0 7.3 11.2 31.7 31.7 0 0 0 11.3 7.3 45 45 0 0 0 15.4 3c6.7.3 8.9.3 26.1.3s19.4 0 26.2-.3a44.9 44.9 0 0 0 15.3-3 31.7 31.7 0 0 0 11.3-7.3 31.4 31.4 0 0 0 7.3-11.2 46.3 46.3 0 0 0 2.9-15.4c.3-6.8.4-8.9.4-26.2s-.1-19.3-.4-26.1-1.3-11.4-2.9-15.4a30.5 30.5 0 0 0-7.3-11.2 31.7 31.7 0 0 0-11.3-7.3 44.9 44.9 0 0 0-15.3-3c-6.8-.3-9-.4-26.2-.4"/><path fill="#efebe3" d="M128.3 97.3a32.6 32.6 0 1 0 32.6 32.5 32.5 32.5 0 0 0-32.6-32.5m0 53.7a21.2 21.2 0 1 1 21.1-21.2 21.1 21.1 0 0 1-21.1 21.2m41.5-55a7.6 7.6 0 0 1-7.6 7.6 7.6 7.6 0 1 1 0-15.2 7.6 7.6 0 0 1 7.6 7.6"/></symbol><symbol id="vimeo" viewBox="0 0 256 256"><circle cx="128.2" cy="127.9" r="109.7" fill="#177ccc"/><path fill="#efebe3" d="M170.4 77c-18.2-.6-30.5 9.6-37 30.8a23.8 23.8 0 0 1 9.7-2.2c6.7 0 9.7 3.8 8.9 11.2-.4 4.6-3.4 11.2-8.9 19.9s-9.6 13-12.3 13-6.8-6.7-9.7-20.1c-1-3.9-2.8-13.9-5.3-30.1s-8.7-21.9-18.9-20.9c-4.3.4-10.8 4.3-19.4 11.8l-19.2 17.1 6.2 7.9c5.9-4.1 9.3-6.2 10.3-6.2 4.5 0 8.7 7.1 12.6 21.2s7.1 25.9 10.6 38.9c5.3 14.1 11.8 21.1 19.4 21.1 12.4 0 27.4-11.6 45.3-34.7s26.1-39.7 26.7-52.5c.8-17.1-5.6-25.8-19-26.2z"/></symbol><symbol id="linkedin" viewBox="0 0 256 256"><circle cx="128.2" cy="128.1" r="109.7" fill="#177ccc" transform="rotate(-80.7 128.1 128.082)"/><path fill="#efebe3" d="M76.3 105.7h23.9v77.32H76.3zm11.8-10.1A14.3 14.3 0 1 0 74 81.3a14.3 14.3 0 0 0 14.1 14.3zm50.3 46.8c0-10.8 5.1-17.3 14.6-17.3s13.1 6.2 13.1 17.3V183h23.8v-48.9c0-20.8-11.8-30.8-28.2-30.8a27 27 0 0 0-23.3 12.8v-10.4h-22.9V183h22.9z"/></symbol><symbol id="behance" viewBox="0 0 256 256"><circle cx="128.7" cy="127.7" r="110.1" fill="#177ccc" transform="rotate(-45 128.693 127.694)"/><path fill="#efebe3" d="M117 164.5a22 22 0 0 0 9.2-4.1 20.7 20.7 0 0 0 5.7-6.4 23.6 23.6 0 0 0 3.6-12.9 21.9 21.9 0 0 0-3.1-12 18.5 18.5 0 0 0-9.4-7.1 19.8 19.8 0 0 0 6.2-4.7c2.5-3 3.7-7 3.7-11.9a20.3 20.3 0 0 0-3.7-12.4c-4.1-5.7-11.2-8.6-21.1-8.7H68.8v81.3h36.7a59.9 59.9 0 0 0 11.5-1.1zM85.1 98.4h17.6a29.9 29.9 0 0 1 9.7 1.3c2.9 1.2 4.3 3.7 4.3 7.5s-1.1 5.8-3.3 7.1-5 2-8.6 2H85.1zm0 53.1v-21.7h20a19.3 19.3 0 0 1 8.1 1.4c3.4 1.6 5.2 4.5 5.2 8.7s-1.8 8.4-5.4 10.2a19.8 19.8 0 0 1-8.2 1.4zm64.2 8.7a32.4 32.4 0 0 0 21.2 7.4c9.7 0 17.2-2.9 22.6-8.7 3.5-3.7 5.4-7.3 5.8-10.9h-16a11.7 11.7 0 0 1-3.3 4.1c-2.2 1.9-5.1 2.8-8.7 2.8a14.7 14.7 0 0 1-8.6-2.3q-6-3.6-6.3-12.6h43.8a76.1 76.1 0 0 0-.6-12 28.8 28.8 0 0 0-4.8-12.4 24.4 24.4 0 0 0-10.3-8.9 34.3 34.3 0 0 0-14.2-2.8c-8.8 0-16 2.8-21.5 8.3s-8.3 13.6-8.3 24 3.1 19.1 9.2 24zm11.2-39.9c2.3-2.3 5.4-3.5 9.4-3.5a13.6 13.6 0 0 1 9.3 3.3c2.6 2.1 3.9 5.3 4.2 9.5h-27.1a16.7 16.7 0 0 1 4.2-9.3zM151.2 89h35.3v8.21h-35.3z"/></symbol><symbol id="instagram" viewBox="0 0 256 256"><circle cx="128.2" cy="127.5" r="109.7" fill="#177ccc"/><path fill="#efebe3" d="M128.3 77.9c16.9 0 18.9 0 25.6.3s9.6 1.3 11.8 2.2a21.2 21.2 0 0 1 12 12c.9 2.3 1.9 5.6 2.2 11.8s.4 8.7.4 25.6-.1 19-.4 25.7-1.3 9.5-2.2 11.7a18.8 18.8 0 0 1-4.7 7.3 20.2 20.2 0 0 1-7.3 4.8 35.2 35.2 0 0 1-11.8 2.1c-6.7.4-8.7.4-25.6.4s-18.9 0-25.6-.4a35.8 35.8 0 0 1-11.8-2.1 21.1 21.1 0 0 1-7.3-4.8 18.8 18.8 0 0 1-4.7-7.3c-.9-2.2-1.9-5.6-2.2-11.7s-.4-8.7-.4-25.7.1-18.9.4-25.6 1.3-9.5 2.2-11.8a19.1 19.1 0 0 1 4.7-7.2 19.8 19.8 0 0 1 7.3-4.8c2.3-.9 5.6-1.9 11.8-2.2s8.7-.3 25.6-.3m0-11.5c-17.2 0-19.4.1-26.1.4a45 45 0 0 0-15.4 3 32.2 32.2 0 0 0-18.6 18.5 47.8 47.8 0 0 0-2.9 15.4c-.3 6.8-.4 8.9-.4 26.1s.1 19.4.4 26.2a49 49 0 0 0 2.9 15.4 32.8 32.8 0 0 0 7.3 11.2 31.7 31.7 0 0 0 11.3 7.3 45 45 0 0 0 15.4 3c6.7.3 8.9.3 26.1.3s19.4 0 26.2-.3a44.9 44.9 0 0 0 15.3-3 31.7 31.7 0 0 0 11.3-7.3 31.4 31.4 0 0 0 7.3-11.2 46.3 46.3 0 0 0 2.9-15.4c.3-6.8.4-8.9.4-26.2s-.1-19.3-.4-26.1-1.3-11.4-2.9-15.4a30.5 30.5 0 0 0-7.3-11.2 31.7 31.7 0 0 0-11.3-7.3 44.9 44.9 0 0 0-15.3-3c-6.8-.3-9-.4-26.2-.4"/><path fill="#efebe3" d="M128.3 97.3a32.6 32.6 0 1 0 32.6 32.5 32.5 32.5 0 0 0-32.6-32.5m0 53.7a21.2 21.2 0 1 1 21.1-21.2 21.1 21.1 0 0 1-21.1 21.2m41.5-55a7.6 7.6 0 0 1-7.6 7.6 7.6 7.6 0 1 1 0-15.2 7.6 7.6 0 0 1 7.6 7.6"/></symbol><symbol id="linkedin" viewBox="0 0 256 256"><circle cx="128.2" cy="128.1" r="109.7" fill="#177ccc" transform="rotate(-80.7 128.1 128.082)"/><path fill="#efebe3" d="M76.3 105.7h23.9v77.32H76.3zm11.8-10.1A14.3 14.3 0 1 0 74 81.3a14.3 14.3 0 0 0 14.1 14.3zm50.3 46.8c0-10.8 5.1-17.3 14.6-17.3s13.1 6.2 13.1 17.3V183h23.8v-48.9c0-20.8-11.8-30.8-28.2-30.8a27 27 0 0 0-23.3 12.8v-10.4h-22.9V183h22.9z"/></symbol><symbol id="vimeo" viewBox="0 0 256 256"><circle cx="128.2" cy="127.9" r="109.7" fill="#177ccc"/><path fill="#efebe3" d="M170.4 77c-18.2-.6-30.5 9.6-37 30.8a23.8 23.8 0 0 1 9.7-2.2c6.7 0 9.7 3.8 8.9 11.2-.4 4.6-3.4 11.2-8.9 19.9s-9.6 13-12.3 13-6.8-6.7-9.7-20.1c-1-3.9-2.8-13.9-5.3-30.1s-8.7-21.9-18.9-20.9c-4.3.4-10.8 4.3-19.4 11.8l-19.2 17.1 6.2 7.9c5.9-4.1 9.3-6.2 10.3-6.2 4.5 0 8.7 7.1 12.6 21.2s7.1 25.9 10.6 38.9c5.3 14.1 11.8 21.1 19.4 21.1 12.4 0 27.4-11.6 45.3-34.7s26.1-39.7 26.7-52.5c.8-17.1-5.6-25.8-19-26.2z"/></symbol></svg>