<svg xmlns="http://www.w3.org/2000/svg" id="Layer_1" width="256" height="256" viewBox="0 0 256 256"><circle cx="128.7" cy="127.7" r="110.1" fill="#177ccc" transform="rotate(-45 128.693 127.694)"/><path fill="#efebe3" d="M117 164.5a22 22 0 0 0 9.2-4.1 20.7 20.7 0 0 0 5.7-6.4 23.6 23.6 0 0 0 3.6-12.9 21.9 21.9 0 0 0-3.1-12 18.5 18.5 0 0 0-9.4-7.1 19.8 19.8 0 0 0 6.2-4.7c2.5-3 3.7-7 3.7-11.9a20.3 20.3 0 0 0-3.7-12.4c-4.1-5.7-11.2-8.6-21.1-8.7H68.8v81.3h36.7a59.9 59.9 0 0 0 11.5-1.1zM85.1 98.4h17.6a29.9 29.9 0 0 1 9.7 1.3c2.9 1.2 4.3 3.7 4.3 7.5s-1.1 5.8-3.3 7.1-5 2-8.6 2H85.1zm0 53.1v-21.7h20a19.3 19.3 0 0 1 8.1 1.4c3.4 1.6 5.2 4.5 5.2 8.7s-1.8 8.4-5.4 10.2a19.8 19.8 0 0 1-8.2 1.4zm64.2 8.7a32.4 32.4 0 0 0 21.2 7.4c9.7 0 17.2-2.9 22.6-8.7 3.5-3.7 5.4-7.3 5.8-10.9h-16a11.7 11.7 0 0 1-3.3 4.1c-2.2 1.9-5.1 2.8-8.7 2.8a14.7 14.7 0 0 1-8.6-2.3q-6-3.6-6.3-12.6h43.8a76.1 76.1 0 0 0-.6-12 28.8 28.8 0 0 0-4.8-12.4 24.4 24.4 0 0 0-10.3-8.9 34.3 34.3 0 0 0-14.2-2.8c-8.8 0-16 2.8-21.5 8.3s-8.3 13.6-8.3 24 3.1 19.1 9.2 24zm11.2-39.9c2.3-2.3 5.4-3.5 9.4-3.5a13.6 13.6 0 0 1 9.3 3.3c2.6 2.1 3.9 5.3 4.2 9.5h-27.1a16.7 16.7 0 0 1 4.2-9.3zM151.2 89h35.3v8.21h-35.3z"/></svg>