<svg xmlns="http://www.w3.org/2000/svg" id="Layer_1" width="256" height="256" viewBox="0 0 256 256"><circle cx="128.2" cy="127.5" r="109.7" fill="#177ccc"/><path fill="#efebe3" d="M128.3 77.9c16.9 0 18.9 0 25.6.3s9.6 1.3 11.8 2.2a21.2 21.2 0 0 1 12 12c.9 2.3 1.9 5.6 2.2 11.8s.4 8.7.4 25.6-.1 19-.4 25.7-1.3 9.5-2.2 11.7a18.8 18.8 0 0 1-4.7 7.3 20.2 20.2 0 0 1-7.3 4.8 35.2 35.2 0 0 1-11.8 2.1c-6.7.4-8.7.4-25.6.4s-18.9 0-25.6-.4a35.8 35.8 0 0 1-11.8-2.1 21.1 21.1 0 0 1-7.3-4.8 18.8 18.8 0 0 1-4.7-7.3c-.9-2.2-1.9-5.6-2.2-11.7s-.4-8.7-.4-25.7.1-18.9.4-25.6 1.3-9.5 2.2-11.8a19.1 19.1 0 0 1 4.7-7.2 19.8 19.8 0 0 1 7.3-4.8c2.3-.9 5.6-1.9 11.8-2.2s8.7-.3 25.6-.3m0-11.5c-17.2 0-19.4.1-26.1.4a45 45 0 0 0-15.4 3 32.2 32.2 0 0 0-18.6 18.5 47.8 47.8 0 0 0-2.9 15.4c-.3 6.8-.4 8.9-.4 26.1s.1 19.4.4 26.2a49 49 0 0 0 2.9 15.4 32.8 32.8 0 0 0 7.3 11.2 31.7 31.7 0 0 0 11.3 7.3 45 45 0 0 0 15.4 3c6.7.3 8.9.3 26.1.3s19.4 0 26.2-.3a44.9 44.9 0 0 0 15.3-3 31.7 31.7 0 0 0 11.3-7.3 31.4 31.4 0 0 0 7.3-11.2 46.3 46.3 0 0 0 2.9-15.4c.3-6.8.4-8.9.4-26.2s-.1-19.3-.4-26.1-1.3-11.4-2.9-15.4a30.5 30.5 0 0 0-7.3-11.2 31.7 31.7 0 0 0-11.3-7.3 44.9 44.9 0 0 0-15.3-3c-6.8-.3-9-.4-26.2-.4"/><path fill="#efebe3" d="M128.3 97.3a32.6 32.6 0 1 0 32.6 32.5 32.5 32.5 0 0 0-32.6-32.5m0 53.7a21.2 21.2 0 1 1 21.1-21.2 21.1 21.1 0 0 1-21.1 21.2m41.5-55a7.6 7.6 0 0 1-7.6 7.6 7.6 7.6 0 1 1 0-15.2 7.6 7.6 0 0 1 7.6 7.6"/></svg>