<svg xmlns="http://www.w3.org/2000/svg" id="Layer_1" width="256" height="256" viewBox="0 0 256 256"><circle cx="128.2" cy="127.9" r="109.7" fill="#177ccc"/><path fill="#efebe3" d="M170.4 77c-18.2-.6-30.5 9.6-37 30.8a23.8 23.8 0 0 1 9.7-2.2c6.7 0 9.7 3.8 8.9 11.2-.4 4.6-3.4 11.2-8.9 19.9s-9.6 13-12.3 13-6.8-6.7-9.7-20.1c-1-3.9-2.8-13.9-5.3-30.1s-8.7-21.9-18.9-20.9c-4.3.4-10.8 4.3-19.4 11.8l-19.2 17.1 6.2 7.9c5.9-4.1 9.3-6.2 10.3-6.2 4.5 0 8.7 7.1 12.6 21.2s7.1 25.9 10.6 38.9c5.3 14.1 11.8 21.1 19.4 21.1 12.4 0 27.4-11.6 45.3-34.7s26.1-39.7 26.7-52.5c.8-17.1-5.6-25.8-19-26.2z"/></svg>